<svg width="133" height="133" viewBox="0 0 133 133" fill="none" xmlns="http://www.w3.org/2000/svg">
<path d="M66.1141 12.3385C83.7674 12.3385 85.8583 12.4057 92.8297 12.7238C99.2758 13.0179 102.777 14.095 105.106 15.0002C108.192 16.1995 110.395 17.6324 112.708 19.9459C115.022 22.2593 116.455 24.4619 117.654 27.5477C118.559 29.8777 119.636 33.3784 119.93 39.8242C120.248 46.7959 120.316 48.8868 120.316 66.5401C120.316 84.1934 120.248 86.2843 119.93 93.2558C119.636 99.7019 118.559 103.203 117.654 105.532C116.455 108.618 115.022 110.821 112.708 113.134C110.395 115.448 108.192 116.881 105.106 118.08C102.777 118.985 99.2758 120.062 92.8297 120.356C85.8593 120.675 83.7685 120.742 66.1141 120.742C48.4597 120.742 46.3688 120.675 39.3984 120.356C32.9523 120.062 29.4516 118.985 27.1219 118.08C24.0359 116.881 21.8332 115.448 19.5198 113.134C17.2064 110.821 15.7735 108.618 14.5744 105.532C13.669 103.203 12.5919 99.7019 12.2977 93.2561C11.9796 86.2843 11.9124 84.1934 11.9124 66.5401C11.9124 48.8868 11.9796 46.7959 12.2977 39.8244C12.5919 33.3784 13.669 29.8777 14.5744 27.5477C15.7735 24.4619 17.2064 22.2593 19.5198 19.9459C21.8332 17.6324 24.0359 16.1995 27.1219 15.0002C29.4516 14.095 32.9523 13.0179 39.3981 12.7238C46.3699 12.4057 48.4607 12.3385 66.1141 12.3385ZM66.1141 0.425781C48.1584 0.425781 45.9072 0.501889 38.8554 0.823641C31.818 1.14487 27.0122 2.26234 22.8066 3.89682C18.459 5.58642 14.772 7.84708 11.0965 11.5226C7.42104 15.198 5.16037 18.8851 3.47078 23.2327C1.8363 27.4383 0.718825 32.2441 0.397598 39.2814C0.0758454 46.333 0 48.5844 0 66.5401C0 84.4958 0.0758454 86.7473 0.397598 93.7988C0.718825 100.836 1.8363 105.642 3.47078 109.848C5.16037 114.195 7.42104 117.882 11.0965 121.558C14.772 125.233 18.459 127.494 22.8066 129.183C27.0122 130.818 31.818 131.935 38.8554 132.257C45.9072 132.578 48.1584 132.654 66.1141 132.654C84.0697 132.654 86.3212 132.578 93.3727 132.257C100.41 131.935 105.216 130.818 109.422 129.183C113.769 127.494 117.456 125.233 121.132 121.558C124.807 117.882 127.068 114.195 128.757 109.848C130.392 105.642 131.509 100.836 131.831 93.7988C132.152 86.7473 132.228 84.4958 132.228 66.5401C132.228 48.5844 132.152 46.333 131.831 39.2814C131.509 32.2441 130.392 27.4383 128.757 23.2327C127.068 18.8851 124.807 15.198 121.132 11.5226C117.456 7.84708 113.769 5.58642 109.422 3.89682C105.216 2.26234 100.41 1.14487 93.3727 0.823641C86.3212 0.501889 84.0697 0.425781 66.1141 0.425781ZM66.1141 32.5895C47.3637 32.5895 32.1634 47.7898 32.1634 66.5401C32.1634 85.2905 47.3637 100.491 66.1141 100.491C84.8644 100.491 100.065 85.2905 100.065 66.5401C100.065 47.7898 84.8644 32.5895 66.1141 32.5895ZM66.1141 88.5783C53.9429 88.5783 44.0759 78.7113 44.0759 66.5401C44.0759 54.3689 53.9429 44.5019 66.1141 44.5019C78.2853 44.5019 88.1523 54.3689 88.1523 66.5401C88.1523 78.7113 78.2853 88.5783 66.1141 88.5783ZM109.34 31.2481C109.34 35.6298 105.788 39.182 101.406 39.182C97.0243 39.182 93.4722 35.6298 93.4722 31.2481C93.4722 26.8664 97.0243 23.3145 101.406 23.3145C105.788 23.3145 109.34 26.8664 109.34 31.2481Z" fill="#61616D"/>
</svg>
