<svg width="138" height="177" viewBox="0 0 138 177" fill="none" xmlns="http://www.w3.org/2000/svg">
<path fill-rule="evenodd" clip-rule="evenodd" d="M30.6254 176.947C40.4446 168.19 47.1854 155.718 50.4762 142.927C51.8031 137.885 57.2169 117.239 57.2169 117.239C60.72 123.98 71.07 129.658 81.9508 129.658C114.54 129.658 138 99.725 138 62.4144C138 26.696 108.861 0 71.3885 0C24.7338 0 0 31.3133 0 65.3865C0 81.2024 8.43923 100.946 21.9208 107.208C23.9377 108.217 25.0523 107.739 25.53 105.722C25.8485 104.183 27.7062 96.9121 28.5554 93.4624C28.8208 92.4009 28.7146 91.3925 27.8123 90.331C23.3538 84.9175 19.7446 74.9397 19.7446 65.7049C19.7446 41.875 37.7908 18.788 68.5223 18.788C95.0608 18.788 113.638 36.833 113.638 62.7328C113.638 91.9763 98.8823 112.25 79.6685 112.25C69.0531 112.25 61.0915 103.493 63.6923 92.7193C66.7708 79.8756 72.6623 66.0234 72.6623 56.7886C72.6623 48.5091 68.2569 41.6096 58.9685 41.6096C48.0877 41.6096 39.4362 52.8081 39.4362 67.881C39.4362 77.4342 42.6208 83.9091 42.6208 83.9091C42.6208 83.9091 31.8992 129.181 29.9354 137.619C27.7592 146.96 28.6085 160.07 29.5638 168.614L30.5192 177L30.6254 176.947Z" fill="#61616D"/>
</svg>
